<?xml version="1.0" encoding="UTF-8" standalone="no"?>
<!-- Created with Inkscape (http://www.inkscape.org/) -->

<svg
   xmlns:dc="http://purl.org/dc/elements/1.1/"
   xmlns:cc="http://creativecommons.org/ns#"
   xmlns:rdf="http://www.w3.org/1999/02/22-rdf-syntax-ns#"
   xmlns:svg="http://www.w3.org/2000/svg"
   xmlns="http://www.w3.org/2000/svg"
   xmlns:sodipodi="http://sodipodi.sourceforge.net/DTD/sodipodi-0.dtd"
   xmlns:inkscape="http://www.inkscape.org/namespaces/inkscape"
   width="900"
   height="900"
   id="svg2"
   version="1.1"
   inkscape:version="0.48.5 r10040"
   sodipodi:docname="randomsvgsmwhite.svg">
  <defs
     id="defs4">
    <inkscape:path-effect
       effect="bend_path"
       id="path-effect3003"
       is_visible="true"
       bendpath="m 53.603065,758.21979 493.831815,0"
       prop_scale="1"
       scale_y_rel="false"
       vertical="false" />
  </defs>
  <sodipodi:namedview
     id="base"
     pagecolor="#ffffff"
     bordercolor="#666666"
     borderopacity="1.0"
     inkscape:pageopacity="0.18823529"
     inkscape:pageshadow="2"
     inkscape:zoom="0.35"
     inkscape:cx="731.64634"
     inkscape:cy="748.49184"
     inkscape:document-units="px"
     inkscape:current-layer="layer1"
     showgrid="false"
     inkscape:window-width="1920"
     inkscape:window-height="1017"
     inkscape:window-x="1912"
     inkscape:window-y="-8"
     inkscape:window-maximized="1"
     showborder="true">
    <sodipodi:guide
       position="942.85714,1045.7143"
       orientation="-4.78427,0.008"
       id="guide3065" />
    <sodipodi:guide
       position="546.66808,207.48523"
       orientation="-0.32684,-31.93974"
       id="guide3067" />
    <sodipodi:guide
       position="557.57025,161.29671"
       orientation="-1.1368684e-013,-0.00043"
       id="guide3069" />
    <sodipodi:guide
       position="502.87247,549.98837"
       orientation="-0.46028,41.86464"
       id="guide3071" />
    <sodipodi:guide
       position="544.73711,550.44865"
       orientation="-5.25763,-0.63129"
       id="guide3073" />
    <sodipodi:guide
       position="219.35523,217.3748"
       orientation="2e-005,-5.6843419e-014"
       id="guide3075" />
  </sodipodi:namedview>
  <metadata
     id="metadata7">
    <rdf:RDF>
      <cc:Work
         rdf:about="">
        <dc:format>image/svg+xml</dc:format>
        <dc:type
           rdf:resource="http://purl.org/dc/dcmitype/StillImage" />
        <dc:title></dc:title>
      </cc:Work>
    </rdf:RDF>
  </metadata>
  <g
     inkscape:label="Layer 1"
     inkscape:groupmode="layer"
     id="layer1"
     transform="translate(0,-152.36219)">
    <path
       style="fill:#000000"
       d=""
       id="path2998"
       inkscape:connector-curvature="0" />
    <g
       id="g3077"
       transform="matrix(0.58790963,0,0,0.58790963,204.55139,205.16562)"
       style="fill:#f9f9f9">
      <path
         style="fill:#f9f9f9"
         d="m 563.01691,886.81685 c -9.73727,-1.88174 -11.72328,-3.12642 -14.49852,-9.08659 -1.81057,-3.88842 -2.31126,-5.99938 -1.62907,-6.86835 0.65391,-0.83294 0.64528,-2.25862 -0.0258,-4.2423 -0.75713,-2.2384 -0.63492,-4.09976 0.48726,-7.42134 0.82383,-2.43847 1.56601,-8.33773 1.6493,-13.10947 l 0.15147,-8.67588 -33.17771,-0.51035 c -18.24775,-0.28069 -33.72946,-0.87853 -34.4038,-1.32853 -0.67435,-0.44999 -3.79404,-1.48927 -6.93265,-2.30949 -3.13862,-0.82023 -6.59792,-1.93214 -7.68734,-2.47092 -3.17255,-1.56901 -12.01364,-5.00658 -24.2643,-9.43436 -15.77221,-5.7006 -18.97984,-7.6069 -29.578,-17.57834 -5.10137,-4.7997 -9.65399,-8.72674 -10.11693,-8.72674 -3.24447,0 -15.76632,-17.3395 -15.76632,-21.83227 0,-0.86494 -1.27688,-3.08136 -2.83751,-4.92537 -1.56063,-1.84403 -3.14803,-4.37816 -3.52755,-5.63141 -0.37952,-1.25323 -2.44516,-4.21845 -4.59033,-6.58933 -2.14517,-2.3709 -3.9003,-4.71791 -3.9003,-5.21558 0,-0.49766 0.89134,-2.07269 1.98076,-3.50005 1.08942,-1.42736 1.98076,-3.39564 1.98076,-4.37395 0,-0.97833 0.62977,-2.31742 1.39949,-2.97578 0.76972,-0.65837 1.71432,-3.5853 2.09913,-6.50431 0.38482,-2.91901 1.9834,-8.64924 3.55242,-12.73387 1.56901,-4.08462 2.85275,-8.06121 2.85275,-8.83686 0,-2.17287 5.18069,-11.96014 6.63538,-12.53544 3.0066,-1.18906 5.91075,0.77713 8.19533,5.54846 1.2846,2.68288 2.92992,5.24528 3.65626,5.69421 0.72635,0.44893 1.32062,1.56701 1.32062,2.48465 0,0.91762 0.95831,3.7086 2.12959,6.20219 1.97826,4.21161 2.00955,4.60302 0.44027,5.50811 -1.33065,0.76746 -1.44165,1.28188 -0.52275,2.42297 0.64162,0.79675 1.97374,1.44864 2.96027,1.44864 1.21462,0 1.89489,0.89579 2.10709,2.77472 0.32262,2.85652 1.46447,3.70936 9.47439,7.07641 2.31501,0.97314 4.20911,2.13449 4.20911,2.58078 0,1.00182 11.99981,7.29125 19.23176,10.07989 2.93922,1.13336 5.59422,2.73256 5.89999,3.55377 0.30577,0.82122 1.4961,1.49312 2.64518,1.49312 1.14907,0 5.50834,1.69804 9.68728,3.77342 5.29684,2.63056 8.79539,3.72593 11.55134,3.61666 2.17431,-0.0863 4.86622,0.45974 5.98202,1.21322 2.51709,1.69974 29.54026,6.44947 41.56443,7.30559 6.85802,0.48828 9.94111,0.2605 13.37012,-0.98778 2.45119,-0.89232 5.48161,-1.62908 6.73425,-1.63726 3.56349,-0.0233 8.0963,-2.9047 9.33269,-5.93272 0.61938,-1.5169 1.39391,-10.60814 1.72117,-20.20272 0.7372,-21.61329 1.4482,-23.38508 9.08093,-22.62923 2.68531,0.26592 5.11819,0.0903 5.40639,-0.3903 0.8713,-1.45295 3.37824,-0.97965 3.37824,0.6378 0,0.83137 1.21235,1.82518 2.69411,2.20846 4.35197,1.12571 9.35371,4.50194 14.45063,9.75433 2.62075,2.7007 5.97731,5.55645 7.45903,6.34612 3.10208,1.65326 9.45649,8.50273 16.42901,17.709 2.66526,3.51912 6.44492,7.37634 8.39922,8.5716 3.8918,2.38022 18.83321,17.00137 22.06296,21.59004 2.47103,3.51072 3.90321,14.20436 2.48534,18.55734 -0.54856,1.68414 -2.59999,4.97446 -4.55872,7.3118 -1.95875,2.33736 -5.30282,6.81564 -7.43129,9.95175 -2.12846,3.13612 -4.19998,5.70203 -4.60338,5.70203 -0.6919,0 -14.21654,13.61428 -19.88621,20.01802 -3.09049,3.49065 -8.40041,7.75609 -10.93447,8.78364 -0.99371,0.40294 -1.80675,1.57166 -1.80675,2.59716 0,1.03663 -2.18623,3.58282 -4.92364,5.73428 -2.708,2.12836 -5.85912,5.42971 -7.00248,7.33632 -1.14336,1.90662 -3.49585,4.46731 -5.22774,5.69044 -1.73191,1.22313 -4.26309,3.26902 -5.62487,4.54645 -3.49311,3.27675 -6.80851,4.25876 -11.38936,3.3735 z m -332.7675,-53.65838 c -1.63413,-0.20794 -4.91407,-0.8478 -7.28876,-1.42191 -2.37468,-0.57411 -9.64127,-1.68474 -16.14795,-2.46806 -7.05257,-0.84904 -13.5083,-2.23484 -15.98517,-3.43141 -2.28515,-1.10395 -5.71467,-2.49794 -7.62115,-3.09776 -8.78081,-2.76262 -13.673,-4.09022 -17.33164,-4.70332 -5.86809,-0.98335 -11.01021,-4.91604 -13.70683,-10.483 -4.48444,-9.25775 -3.9925,-15.11286 1.58629,-18.88009 4.77844,-3.2268 40.24266,-11.24308 55.20205,-12.47781 13.95979,-1.15222 24.48751,-4.18081 37.31458,-10.73457 15.48987,-7.91427 24.02276,-15.19058 43.64965,-37.22166 13.94611,-15.65443 17.21231,-19.99828 24.46968,-32.54321 8.71388,-15.06266 9.20613,-16.17267 16.81809,-37.92457 6.00945,-17.1726 11.07707,-29.7153 13.81507,-34.19319 1.20139,-1.96483 2.79466,-5.63932 3.5406,-8.16554 0.74595,-2.52621 2.12954,-6.2007 3.07465,-8.16553 2.68909,-5.5905 8.84574,-21.15869 8.84574,-22.36804 0,-1.5432 5.07434,-16.71763 6.00495,-17.95735 0.42472,-0.56581 1.38707,-2.86236 2.13855,-5.10346 1.32571,-3.95361 5.36595,-9.01678 16.57677,-20.77385 10.31197,-10.81441 31.26071,-23.25302 49.12522,-29.1688 17.19284,-5.69334 19.49297,-5.91337 66.2932,-6.34152 23.96719,-0.21925 44.57946,-0.62751 45.80505,-0.90722 3.08033,-0.703 2.91703,-5.21146 -0.69925,-19.30493 -1.97624,-7.70184 -2.58331,-11.72969 -1.95132,-12.94672 0.50458,-0.97166 0.91741,-3.14874 0.91741,-4.83796 0,-4.00903 2.44295,-5.70607 11.31834,-7.86249 l 7.05603,-1.71438 5.42091,2.79869 c 2.9815,1.53927 7.94833,5.04388 11.0374,7.78802 3.08907,2.74413 6.08001,4.98933 6.64652,4.98933 0.56652,0 3.38715,1.95725 6.26807,4.34943 2.88092,2.39218 6.44356,5.14509 7.91698,6.11757 1.47342,0.97247 5.42851,4.29662 8.78909,7.38699 3.36059,3.09037 13.14057,10.45031 21.73328,16.35542 8.59271,5.90511 17.1164,12.5556 18.94152,14.77887 9.31555,11.34771 9.26256,11.24826 9.22952,17.32124 -0.0491,9.02171 -3.86558,14.56189 -18.17412,26.38232 -2.25116,1.85969 -6.63342,6.66265 -9.73836,10.67323 -8.42449,10.88171 -27.49626,30.7391 -35.98779,37.47023 -11.43676,9.06578 -13.63006,10.21901 -19.44356,10.22333 -2.82426,0.002 -6.18696,0.416 -7.47265,0.91978 -1.49687,0.58653 -4.10256,0.46247 -7.24472,-0.34493 -4.4792,-1.15095 -5.16497,-1.7426 -7.86444,-6.78495 l -2.95735,-5.52405 -0.0583,-17.86211 c -0.0484,-14.8479 -0.34224,-18.37884 -1.74085,-20.92419 -0.9254,-1.68414 -1.68529,-3.62006 -1.68865,-4.30203 -0.009,-1.83254 -3.40731,-3.38283 -7.65518,-3.49226 -6.52411,-0.16808 -27.14537,0.9729 -37.41319,2.07008 -5.44708,0.58205 -16.27982,1.07465 -24.07276,1.09469 -13.8463,0.0356 -14.3559,0.11615 -22.3776,3.53838 -10.79717,4.60629 -16.32213,8.1653 -19.70431,12.69291 -17.17245,22.98807 -27.4284,41.01378 -37.24459,65.46049 -1.46519,3.64897 -4.66193,10.07934 -7.10388,14.28969 -2.44196,4.21036 -5.49995,10.41106 -6.79553,13.77934 -1.29557,3.36829 -4.0123,9.56899 -6.03716,13.77935 -2.02486,4.21035 -5.10403,11.32968 -6.84263,15.82073 -1.73858,4.49104 -7.18788,15.96351 -12.10955,25.49437 -4.92168,9.53086 -9.7893,20.13433 -10.81694,23.56328 -2.0734,6.91833 -8.82939,18.60743 -13.62797,23.57885 -1.71443,1.77619 -3.11716,3.51832 -3.11716,3.87139 0,0.93557 -7.80485,11.7381 -11.27795,15.60957 -1.63676,1.82449 -3.5088,3.31725 -4.16009,3.31725 -0.65131,0 -3.35556,1.95208 -6.00945,4.33795 -2.6539,2.38586 -5.71038,4.89212 -6.79218,5.56946 -4.43174,2.77482 -22.62722,11.52713 -23.96413,11.52713 -0.79194,0 -4.43807,1.35619 -8.10252,3.01376 -4.11897,1.86316 -9.09775,3.21663 -13.04093,3.54514 -10.21807,0.85128 -24.94403,1.33468 -28.16664,0.92461 z m 89.1903,-193.4766 c -0.84794,-1.24766 -1.54172,-2.82815 -1.54172,-3.51218 0,-2.19134 -2.0486,-2.63798 -3.95295,-0.86181 -1.26589,1.18069 -2.57112,1.4872 -4.14671,0.97382 -3.53247,-1.15101 -8.68857,-5.56422 -10.33536,-8.84624 -0.81501,-1.62427 -3.40634,-4.21108 -5.75852,-5.74844 -2.35219,-1.53737 -7.32775,-6.35789 -11.0568,-10.71228 -4.08519,-4.77023 -8.95723,-9.19994 -12.25753,-11.14464 -3.01258,-1.77518 -9.0428,-5.74416 -13.40047,-8.81996 -9.07986,-6.40891 -25.52056,-13.78877 -35.65366,-16.00411 -7.56434,-1.65376 -16.45343,-4.52489 -40.4405,-13.06209 -8.62456,-3.06956 -17.53798,-5.86917 -19.80759,-6.22135 -9.27993,-1.43998 -9.25872,-1.42804 -11.03064,-6.20976 -2.51396,-6.78417 -1.38961,-11.61124 3.8679,-16.60577 4.95365,-4.70587 6.75611,-5.7605 11.45439,-6.702 7.08947,-1.42068 33.73632,-3.70605 50.72619,-4.35053 18.54121,-0.70334 20.74408,-0.43915 40.88391,4.90323 4.35767,1.15593 11.71124,2.96794 16.34126,4.02667 9.2971,2.12595 14.1126,4.49377 20.79797,10.22655 2.45119,2.10192 7.8173,5.39347 11.92467,7.31455 4.98391,2.33107 8.60761,4.85707 10.89417,7.59413 1.88443,2.25568 7.69151,7.59156 12.90464,11.85752 7.53894,6.16921 10.00015,8.86014 12.0282,13.15089 l 2.5498,5.39458 -1.94085,8.67588 c -5.01151,22.40228 -9.65592,36.74492 -11.89869,36.74492 -0.44455,0 -0.80828,0.63124 -0.80828,1.40275 0,1.73896 -6.17077,8.80417 -7.6896,8.80417 -0.61132,0 -1.80527,-1.02082 -2.65323,-2.2685 z"
         id="path3032"
         inkscape:connector-curvature="0" />
      <path
         style="fill:#f9f9f9"
         d="m 561.03615,885.35985 c -0.54471,-0.20613 -2.91819,-0.8859 -5.2744,-1.51059 -3.49854,-0.92755 -4.54613,-1.78229 -5.7135,-4.66172 -1.62001,-3.99589 -2.5346,-16.49149 -1.37669,-18.80905 0.42071,-0.84207 1.08218,-5.92799 1.4699,-11.30205 1.04234,-14.44717 3.61841,-13.43306 -33.08137,-13.02289 -33.96445,0.37961 -32.59296,0.58582 -55.06189,-8.27898 -5.44708,-2.14907 -15.029,-5.84325 -21.29315,-8.2093 -14.33703,-5.41526 -17.26842,-7.22286 -28.10504,-17.33057 -4.83595,-4.51066 -9.14704,-8.2012 -9.58021,-8.2012 -3.09884,0 -13.1209,-14.03274 -15.30838,-21.43453 -0.41476,-1.40345 -2.031,-4.06048 -3.59163,-5.9045 -1.56063,-1.84402 -2.83751,-3.96108 -2.83751,-4.70459 0,-0.74349 -1.74013,-3.38921 -3.86694,-5.87935 -3.28625,-3.84764 -3.6991,-4.82719 -2.74925,-6.52303 2.35458,-4.20382 5.61756,-13.33366 5.63788,-15.77483 0.0117,-1.40346 1.60375,-6.45588 3.53792,-11.22762 1.93417,-4.77173 3.86149,-10.05382 4.28293,-11.73796 1.25165,-5.00176 3.9923,-9.69657 5.66047,-9.69657 0.85689,0 2.85096,1.42651 4.43128,3.17002 2.15879,2.38171 2.8733,4.16473 2.8733,7.17011 0,3.32759 0.41625,4.16319 2.47595,4.97025 2.97968,1.16755 3.21598,3.60277 0.49519,5.10346 -2.63201,1.45172 -2.50339,3.49507 0.34091,5.41577 1.27693,0.86228 3.83954,3.23815 5.69469,5.27972 3.26681,3.59507 11.61342,8.69766 14.22728,8.69766 0.70561,0 1.89459,0.76206 2.64218,1.69347 0.74757,0.9314 3.58759,2.75871 6.31113,4.06068 2.72354,1.30198 4.95872,2.72165 4.96706,3.15483 0.0345,1.78899 1.6297,3.21226 2.99514,2.67225 1.87251,-0.74054 8.37906,0.49607 8.37906,1.59248 0,0.45809 -1.06193,0.62368 -2.35986,0.36798 -3.15124,-0.62084 -4.18892,1.36234 -1.49135,2.85023 4.60346,2.5391 7.74179,2.94869 8.74324,1.14109 0.88614,-1.59947 1.13143,-1.59676 3.72299,0.0411 1.52589,0.96437 4.33419,2.56182 6.24067,3.54989 1.90648,0.98807 4.6604,2.78309 6.11984,3.98895 2.46818,2.03933 13.53134,4.33088 17.64927,3.65573 0.81706,-0.13396 5.05094,0.21821 9.40861,0.7826 24.13361,3.1257 33.05785,3.47746 40.93818,1.61364 15.87764,-3.75532 16.35978,-4.55363 16.99901,-28.14556 0.46387,-17.11968 0.63321,-18.418 2.67689,-20.52291 2.16561,-2.23053 2.23203,-2.23456 9.01693,-0.54681 9.72339,2.4187 17.53298,6.23835 21.79379,10.65931 2.02415,2.10024 5.88385,5.4262 8.5771,7.39103 2.69325,1.96483 8.48052,8.06916 12.8606,13.56517 4.38008,5.49601 9.52364,10.93417 11.43012,12.0848 5.00316,3.01959 19.62309,18.09091 21.86209,22.53707 1.19216,2.36739 1.90702,5.84943 1.90702,9.2891 0,5.79908 -1.57042,11.93093 -3.0556,11.93093 -0.48459,0 -2.05663,1.95207 -3.49343,4.33794 -2.56857,4.26526 -10.1991,12.25128 -16.16591,16.91905 -1.66922,1.30579 -3.03493,2.86757 -3.03493,3.4706 0,1.19618 -8.66779,9.97592 -9.84871,9.97592 -0.40014,0 -1.23517,1.14828 -1.85564,2.55173 -0.62047,1.40345 -1.71022,2.55173 -2.42169,2.55173 -1.30734,0 -6.54005,4.08726 -9.51306,7.43064 -0.88857,0.99926 -3.55721,3.75513 -5.93033,6.12415 -2.37312,2.36903 -5.13903,5.972 -6.14649,8.00661 -1.00745,2.03461 -4.73855,6.05358 -8.29132,8.93105 -5.28409,4.27972 -7.13931,5.21711 -10.19477,5.15119 -2.05436,-0.0443 -4.18086,-0.24923 -4.72557,-0.45536 z m -326.61571,-53.1747 c -0.20908,-0.21547 -6.3583,-1.28155 -13.66495,-2.36908 -16.48922,-2.45425 -21.00907,-3.46426 -26.65493,-5.95629 -2.45119,-1.08193 -6.68507,-2.29181 -9.40861,-2.68861 -4.47035,-0.65131 -9.77608,-1.88573 -20.50574,-4.77086 -6.64281,-1.78621 -11.11013,-7.0712 -13.62931,-16.12393 -1.00536,-3.61277 0.28706,-7.63459 3.27453,-10.18985 3.665,-3.13478 36.67066,-10.38423 56.61039,-12.43404 15.21492,-1.56411 25.91419,-4.77172 39.09649,-11.72101 14.11728,-7.44218 24.35151,-16.5411 41.86667,-37.22228 12.65051,-14.93719 24.51124,-31.08915 24.51281,-33.38157 3e-4,-0.44639 1.75157,-3.74549 3.89171,-7.33135 2.14014,-3.58585 4.84492,-9.32724 6.01062,-12.75865 8.4137,-24.76705 17.22532,-46.95746 20.35233,-51.25356 1.26755,-1.74146 3.12709,-5.64561 4.13231,-8.67589 1.00522,-3.03029 2.57,-6.65789 3.47728,-8.06134 0.90729,-1.40345 2.30148,-5.07795 3.0982,-8.16554 0.79672,-3.08759 2.1564,-7.32148 3.02151,-9.40862 0.86511,-2.08715 1.59063,-4.84302 1.61224,-6.12415 0.0216,-1.28114 1.35852,-4.85556 2.97091,-7.94315 1.61238,-3.08759 2.93172,-6.13171 2.93184,-6.7647 1.3e-4,-0.63298 0.64008,-1.69816 1.42213,-2.36708 0.78206,-0.66891 1.69651,-2.50471 2.03213,-4.07957 0.33563,-1.57485 1.70129,-3.91973 3.0348,-5.21085 1.33352,-1.29111 2.42458,-2.90008 2.42458,-3.57548 0,-2.06199 14.21802,-16.30983 22.88372,-22.93171 14.18914,-10.84262 34.44842,-19.3662 54.29281,-22.84236 7.52448,-1.31808 17.26252,-1.63532 50.19728,-1.63532 24.15296,0 41.90056,-0.40704 43.40218,-0.99543 2.18945,-0.8579 2.53555,-1.59822 2.50514,-5.35863 -0.0395,-4.885 -2.09671,-14.61942 -3.77094,-17.84349 -2.0582,-3.96348 -0.71246,-17.03497 1.93147,-18.76088 2.10392,-1.37341 11.29267,-3.99626 13.91173,-3.97099 3.87195,0.0374 10.09633,3.51938 16.85675,9.42997 3.52728,3.08387 7.28076,5.8908 8.34106,6.23762 1.06031,0.34683 3.29125,1.89606 4.95764,3.44274 1.6664,1.54667 5.22217,4.37497 7.90172,6.2851 2.67956,1.91014 6.65459,5.20931 8.83343,7.33149 3.82962,3.73005 13.07031,10.50267 29.81526,21.85199 7.55614,5.12136 14.25662,11.85963 14.25662,14.33699 0,0.60914 1.33702,2.42766 2.97114,4.04117 5.437,5.36841 3.39643,14.78142 -5.2551,24.24144 -2.43866,2.66656 -5.14947,4.84829 -6.02402,4.84829 -2.535,0 -9.47526,7.08289 -14.00194,14.28969 -4.36795,6.95409 -26.14726,30.4997 -34.6369,37.44593 -10.91505,8.93071 -13.52234,10.29716 -20.84038,10.92213 -9.37227,0.80041 -10.31906,0.80423 -14.45183,0.0583 -3.16101,-0.57052 -3.94613,-1.35361 -6.43747,-6.42078 -2.78995,-5.67451 -2.83762,-6.06114 -2.85104,-23.12278 -0.0117,-14.8085 -0.26569,-17.72166 -1.73316,-19.87543 -0.94574,-1.38799 -1.71952,-3.59317 -1.71952,-4.90035 0,-3.7376 -5.91151,-5.87214 -12.35244,-4.46027 -5.24587,1.14992 -18.25879,1.9206 -52.51742,3.11029 -20.62884,0.71638 -20.8624,0.74999 -28.721,4.1336 -4.35767,1.87626 -8.59154,3.93738 -9.40861,4.58026 -0.81706,0.64289 -2.74969,1.82209 -4.29473,2.62044 -2.49025,1.28676 -6.14918,5.44975 -9.07539,10.32564 -0.54471,0.90764 -2.79029,4.12101 -4.99019,7.14082 -6.82212,9.36475 -16.27345,25.08682 -19.41152,32.29062 -1.64902,3.78553 -3.86327,8.6693 -4.92055,10.85282 -1.05727,2.18351 -3.09217,7.00628 -4.52199,10.71726 -1.42981,3.71099 -3.94468,8.77868 -5.58859,11.26156 -1.64391,2.48287 -5.07687,9.37254 -7.62879,15.31038 -2.55192,5.93783 -6.2073,14.01124 -8.12306,17.94091 -1.91575,3.92966 -3.8142,8.29312 -4.21877,9.69657 -1.49246,5.17733 -6.57638,16.37144 -10.73911,23.64605 -6.57855,11.49645 -11.04982,20.98182 -14.09521,29.90168 -1.75299,5.13449 -3.91886,9.30615 -5.8821,11.32948 -1.70909,1.7614 -3.66502,4.58989 -4.34652,6.28553 -0.6815,1.69564 -2.21173,3.54239 -3.40051,4.10388 -1.20869,0.57089 -4.07633,4.73458 -6.50572,9.44607 -2.91364,5.65062 -5.31088,8.97143 -7.27939,10.08395 -1.61431,0.91232 -5.87027,3.88869 -9.45768,6.61413 -12.54083,9.52758 -21.84619,14.666 -37.27415,20.58279 -7.46792,2.86403 -11.74735,3.87051 -17.82683,4.19267 -4.39994,0.23315 -10.76409,0.58896 -14.14254,0.79067 -3.37846,0.2017 -6.31371,0.19045 -6.52278,-0.025 z m 87.10895,-193.97732 c -0.36315,-0.37425 -0.66026,-1.43474 -0.66026,-2.35665 0,-0.9219 -0.60595,-2.53023 -1.34657,-3.57408 -1.30477,-1.83899 -1.45443,-1.82921 -4.8212,0.31526 -1.91104,1.21724 -3.97317,2.21317 -4.58249,2.21317 -1.85732,0 -8.95485,-5.49608 -9.59736,-7.43188 -0.3319,-0.99993 -2.46071,-3.52614 -4.73071,-5.61381 -2.26999,-2.08765 -7.91785,-7.49158 -12.55079,-12.00872 -4.63294,-4.51715 -10.20621,-9.37681 -12.38504,-10.79925 -2.17884,-1.42244 -5.84607,-3.81247 -8.1494,-5.31119 -2.30334,-1.4987 -4.58854,-2.72492 -5.07823,-2.72492 -0.48968,0 -1.43925,-0.68163 -2.11013,-1.51474 -3.28361,-4.0776 -24.1227,-13.15384 -37.15236,-16.1813 -3.81296,-0.88595 -16.96025,-5.11729 -29.21619,-9.40298 -12.25595,-4.28569 -25.37222,-8.32408 -29.14726,-8.9742 -6.29,-1.08324 -6.92583,-1.42212 -7.60672,-4.0542 -0.40865,-1.57969 -1.22122,-3.466 -1.8057,-4.19182 -1.42085,-1.76442 -0.23982,-7.53779 2.25868,-11.04143 3.2627,-4.57528 8.62473,-7.62219 15.50303,-8.80944 20.364,-3.51495 65.37039,-4.91427 76.75441,-2.38641 3.26825,0.72573 9.95331,2.4233 14.85569,3.77238 4.90238,1.34908 11.88739,3.17925 15.52223,4.06706 6.41475,1.56678 15.67472,6.05528 15.67472,7.59784 0,1.14319 8.54658,6.50381 15.98951,10.029 3.88827,1.8416 7.50429,4.40407 8.83766,6.26276 1.24122,1.73021 6.78612,6.84207 12.32203,11.35969 14.84438,12.11389 15.92816,15.04869 12.05864,32.65402 -3.67373,16.71457 -4.93531,21.07867 -7.29097,25.22135 -2.01525,3.544 -2.79841,4.20382 -3.88577,3.27377 -2.1893,-1.87257 -4.66597,-0.29783 -3.97755,2.52901 0.44773,1.83853 0.12905,2.55017 -1.31643,2.93974 -1.37519,0.37063 -1.7547,1.11489 -1.36057,2.66822 0.55409,2.18368 0.19497,2.71035 -1.0049,1.47375 z"
         id="path3030"
         inkscape:connector-curvature="0" />
    </g>
  </g>
</svg>
